<?xml version="1.0" encoding="UTF-8" standalone="no"?>
<!-- Created with Inkscape (http://www.inkscape.org/) -->

<svg
   xmlns:dc="http://purl.org/dc/elements/1.1/"
   xmlns:cc="http://creativecommons.org/ns#"
   xmlns:rdf="http://www.w3.org/1999/02/22-rdf-syntax-ns#"
   xmlns:svg="http://www.w3.org/2000/svg"
   xmlns="http://www.w3.org/2000/svg"
   xmlns:sodipodi="http://sodipodi.sourceforge.net/DTD/sodipodi-0.dtd"
   xmlns:inkscape="http://www.inkscape.org/namespaces/inkscape"
   version="1.1"
   id="svg2"
   width="64"
   height="64"
   viewBox="0 0 64 64"
   sodipodi:docname="favicon.svg"
   inkscape:version="0.92.2 (5c3e80d, 2017-08-06)"
   inkscape:export-filename="C:\Users\Patti Adams\Documents\strony\react-course-projects\expensify\public\images\favicon.png"
   inkscape:export-xdpi="358.83246"
   inkscape:export-ydpi="358.83246">
  <metadata
     id="metadata8">
    <rdf:RDF>
      <cc:Work
         rdf:about="">
        <dc:format>image/svg+xml</dc:format>
        <dc:type
           rdf:resource="http://purl.org/dc/dcmitype/StillImage" />
        <dc:title />
      </cc:Work>
    </rdf:RDF>
  </metadata>
  <defs
     id="defs6" />
  <sodipodi:namedview
     pagecolor="#ffffff"
     bordercolor="#666666"
     borderopacity="1"
     objecttolerance="10"
     gridtolerance="10"
     guidetolerance="10"
     inkscape:pageopacity="0"
     inkscape:pageshadow="2"
     inkscape:window-width="1366"
     inkscape:window-height="705"
     id="namedview4"
     showgrid="false"
     inkscape:zoom="7.375"
     inkscape:cx="-5.9778083"
     inkscape:cy="32.597715"
     inkscape:window-x="-8"
     inkscape:window-y="-8"
     inkscape:window-maximized="1"
     inkscape:current-layer="svg2" />
  <path
     style="opacity:0.91399997;fill:#ff6600;fill-opacity:1;stroke:none;stroke-width:25.35097694;stroke-linejoin:miter;stroke-miterlimit:4;stroke-dasharray:none;stroke-dashoffset:0;stroke-opacity:1"
     d="M 32 2.1699219 C 15.525401 2.1701588 2.1701588 15.525401 2.1699219 32 C 2.1701588 48.474599 15.525401 61.829841 32 61.830078 C 48.474599 61.829841 61.829841 48.474599 61.830078 32 C 61.829841 15.525401 48.474599 2.1701588 32 2.1699219 z M 29.972656 11.609375 L 33.978516 11.609375 L 33.978516 15.490234 L 35.197266 15.490234 C 36.690119 15.490234 37.850324 15.920665 38.679688 16.783203 C 39.525638 17.645741 39.949219 18.849963 39.949219 20.392578 L 39.949219 20.988281 L 34.078125 24.048828 L 34.078125 20.888672 L 29.847656 20.888672 L 29.847656 28.751953 L 39.949219 23.501953 L 39.949219 40.769531 C 39.949219 42.295559 39.534441 43.482175 38.705078 44.328125 C 37.875715 45.174075 36.706706 45.595703 35.197266 45.595703 L 33.978516 45.595703 L 33.978516 49.951172 L 29.972656 49.951172 L 29.972656 45.595703 L 28.728516 45.595703 C 27.252249 45.595703 26.098894 45.180926 25.269531 44.351562 C 24.456755 43.505612 24.050781 42.312147 24.050781 40.769531 L 24.050781 39.998047 L 29.847656 36.988281 L 29.847656 40.197266 L 34.078125 40.197266 L 34.078125 32.359375 L 24.050781 37.609375 L 24.050781 20.392578 C 24.050781 18.833375 24.456755 17.629154 25.269531 16.783203 C 26.098894 15.920665 27.252249 15.490234 28.728516 15.490234 L 29.972656 15.490234 L 29.972656 11.609375 z "
     id="path4506" />
</svg>
